<svg width="148" height="14" viewBox="0 0 148 14" fill="none" xmlns="http://www.w3.org/2000/svg">
<path d="M4.99721 2.93663C4.44087 2.93663 3.89032 3.01776 3.34556 3.18003C2.80081 3.33071 2.26764 3.51615 1.74607 3.73637L0.91155 1.61531C1.52585 1.34872 2.17492 1.14009 2.85876 0.989418C3.5426 0.82715 4.2728 0.746016 5.04937 0.746016C6.86908 0.746016 8.28313 1.30816 9.29151 2.43244C10.3115 3.54513 10.8215 5.11565 10.8215 7.14399C10.8215 8.41895 10.607 9.53744 10.1782 10.4995C9.74933 11.4499 9.08867 12.1917 8.1962 12.7248C7.31532 13.2464 6.18524 13.5072 4.80597 13.5072C4.09895 13.5072 3.45567 13.455 2.87615 13.3507C2.30821 13.2464 1.72868 13.0841 1.13757 12.8639V10.6559C1.79823 10.8646 2.40673 11.0268 2.96307 11.1427C3.53101 11.2586 4.09315 11.3166 4.6495 11.3166C5.71583 11.3166 6.53875 11.0558 7.11828 10.5342C7.69781 10.0011 8.01075 9.20711 8.05711 8.15237H2.66752V5.99653H8.03973C8.00496 5.03451 7.71519 4.28692 7.17044 3.75376C6.62568 3.209 5.90127 2.93663 4.99721 2.93663ZM24.705 13.3333H22.0797V3.11049H19.0372C18.9677 3.64365 18.8923 4.22318 18.8112 4.84907C18.7416 5.47495 18.6605 6.11243 18.5678 6.7615C18.4866 7.39898 18.3997 8.00749 18.307 8.58701C18.2143 9.15495 18.1215 9.65914 18.0288 10.0996C17.8781 10.8182 17.6753 11.4325 17.4203 11.9425C17.1769 12.4525 16.835 12.8407 16.3946 13.1073C15.9657 13.3739 15.4036 13.5072 14.7081 13.5072C14.2561 13.5072 13.8388 13.4434 13.4564 13.316V11.1601C13.607 11.2181 13.7519 11.2644 13.891 11.2992C14.0417 11.3224 14.2039 11.334 14.3778 11.334C14.7139 11.334 14.9689 11.1601 15.1428 10.8124C15.3282 10.4531 15.5137 9.78663 15.6991 8.81303C15.7687 8.44213 15.8672 7.8626 15.9947 7.07445C16.1222 6.28629 16.2613 5.36484 16.4119 4.31011C16.5742 3.24378 16.7249 2.1137 16.864 0.919874H24.705V13.3333ZM36.8075 13.3333H29.662V0.919874H36.8075V3.07571H32.2872V5.80528H36.4946V7.96112H32.2872V11.1601H36.8075V13.3333ZM51.3346 13.3333H48.3442L43.8413 7.03968V13.3333H41.216V0.919874H43.8413V6.93536L48.2921 0.919874H51.0912L46.5709 6.8832L51.3346 13.3333ZM59.5037 13.3333H56.8785V3.11049H53.5056V0.919874H62.8766V3.11049H59.5037V13.3333ZM70.5803 0.919874C72.1797 0.919874 73.3446 1.26759 74.0748 1.96302C74.8166 2.64686 75.1875 3.59149 75.1875 4.79691C75.1875 5.52711 75.0368 6.20516 74.7355 6.83105C74.4341 7.45694 73.9299 7.96112 73.2229 8.34361C72.5275 8.7261 71.577 8.91734 70.3716 8.91734H69.2415V13.3333H66.6163V0.919874H70.5803ZM70.4412 3.07571H69.2415V6.7615H70.1108C70.8526 6.7615 71.438 6.61662 71.8668 6.32686C72.3072 6.0255 72.5275 5.5445 72.5275 4.88384C72.5275 3.67842 71.832 3.07571 70.4412 3.07571ZM90.6249 7.10922C90.6249 8.39577 90.4104 9.52005 89.9816 10.4821C89.5643 11.4325 88.9153 12.1743 88.0344 12.7074C87.1651 13.2406 86.0582 13.5072 84.7137 13.5072C83.3692 13.5072 82.2565 13.2406 81.3756 12.7074C80.5063 12.1743 79.8573 11.4267 79.4284 10.4647C79.0111 9.50266 78.8025 8.37838 78.8025 7.09183C78.8025 5.80528 79.0111 4.6868 79.4284 3.73637C79.8573 2.78595 80.5063 2.04995 81.3756 1.52838C82.2565 0.995213 83.375 0.728631 84.7311 0.728631C86.0756 0.728631 87.1825 0.995213 88.0518 1.52838C88.921 2.04995 89.5643 2.79175 89.9816 3.75376C90.4104 4.70418 90.6249 5.82267 90.6249 7.10922ZM81.5669 7.10922C81.5669 8.40736 81.8161 9.43312 82.3144 10.1865C82.8128 10.9283 83.6126 11.2992 84.7137 11.2992C85.838 11.2992 86.6435 10.9283 87.1303 10.1865C87.6171 9.43312 87.8605 8.40736 87.8605 7.10922C87.8605 5.81108 87.6171 4.79111 87.1303 4.04932C86.6435 3.29593 85.8438 2.91924 84.7311 2.91924C83.6184 2.91924 82.8128 3.29593 82.3144 4.04932C81.8161 4.79111 81.5669 5.81108 81.5669 7.10922ZM100.29 2.93663C99.2812 2.93663 98.5105 3.31332 97.9773 4.0667C97.4441 4.82009 97.1775 5.85165 97.1775 7.16138C97.1775 8.4827 97.4209 9.50846 97.9077 10.2387C98.4061 10.9573 99.2001 11.3166 100.29 11.3166C100.788 11.3166 101.292 11.2586 101.802 11.1427C102.312 11.0268 102.863 10.8646 103.454 10.6559V12.8639C102.909 13.0841 102.37 13.2464 101.837 13.3507C101.304 13.455 100.707 13.5072 100.046 13.5072C98.7596 13.5072 97.7049 13.2464 96.882 12.7248C96.0591 12.1917 95.4505 11.4499 95.0565 10.4995C94.6624 9.53744 94.4654 8.41895 94.4654 7.14399C94.4654 5.89221 94.6914 4.78532 95.1434 3.8233C95.5954 2.86129 96.2503 2.1079 97.108 1.56315C97.9773 1.01839 99.0378 0.746016 100.29 0.746016C100.904 0.746016 101.518 0.82715 102.132 0.989418C102.758 1.14009 103.355 1.34872 103.923 1.61531L103.071 3.75376C102.608 3.53354 102.138 3.3423 101.663 3.18003C101.199 3.01776 100.742 2.93663 100.29 2.93663ZM107.917 0.919874H110.282V6.91798C110.282 7.20774 110.276 7.53227 110.264 7.89158C110.253 8.25089 110.241 8.6044 110.229 8.95211C110.218 9.28824 110.206 9.5838 110.195 9.83879C110.183 10.0822 110.171 10.2503 110.16 10.343H110.212L115.949 0.919874H119.096V13.3333H116.749V7.37001C116.749 7.05706 116.755 6.71514 116.766 6.34424C116.778 5.96176 116.79 5.59665 116.801 5.24894C116.824 4.90122 116.842 4.59987 116.853 4.34488C116.877 4.07829 116.894 3.90444 116.906 3.8233H116.836L111.081 13.3333H107.917V0.919874ZM128.836 13.3333H126.211V3.11049H122.838V0.919874H132.209V3.11049H128.836V13.3333ZM135.949 0.919874H138.313V6.91798C138.313 7.20774 138.308 7.53227 138.296 7.89158C138.284 8.25089 138.273 8.6044 138.261 8.95211C138.25 9.28824 138.238 9.5838 138.227 9.83879C138.215 10.0822 138.203 10.2503 138.192 10.343H138.244L143.981 0.919874H147.128V13.3333H144.781V7.37001C144.781 7.05706 144.787 6.71514 144.798 6.34424C144.81 5.96176 144.822 5.59665 144.833 5.24894C144.856 4.90122 144.874 4.59987 144.885 4.34488C144.908 4.07829 144.926 3.90444 144.937 3.8233H144.868L139.113 13.3333H135.949V0.919874Z" fill="#E11C4B"/>
</svg>
