<svg width="156" height="15" viewBox="0 0 156 15" fill="none" xmlns="http://www.w3.org/2000/svg">
<path d="M5.27385 3.04633C4.6877 3.04633 4.10765 3.13181 3.53372 3.30277C2.95978 3.46151 2.39805 3.6569 1.84853 3.88892L0.96931 1.65422C1.61652 1.37336 2.30036 1.15355 3.02083 0.994801C3.74131 0.823841 4.51063 0.738361 5.3288 0.738361C7.246 0.738361 8.7358 1.33062 9.79819 2.51513C10.8728 3.68743 11.4101 5.34208 11.4101 7.47908C11.4101 8.82234 11.1842 10.0007 10.7324 11.0143C10.2805 12.0156 9.58449 12.7972 8.64421 13.3589C7.71614 13.9084 6.52552 14.1832 5.07236 14.1832C4.32746 14.1832 3.64972 14.1282 3.03915 14.0183C2.44079 13.9084 1.83022 13.7375 1.20743 13.5054V11.1792C1.90349 11.399 2.54459 11.5699 3.13074 11.692C3.7291 11.8141 4.32135 11.8752 4.9075 11.8752C6.03096 11.8752 6.89797 11.6004 7.50854 11.0509C8.11912 10.4892 8.44883 9.65272 8.49767 8.54148H2.81935V6.27015H8.47935C8.44272 5.2566 8.13743 4.46896 7.5635 3.90723C6.98956 3.33329 6.22634 3.04633 5.27385 3.04633ZM26.0374 14H23.2715V3.2295H20.066C19.9927 3.79122 19.9133 4.4018 19.8278 5.06122C19.7546 5.72063 19.6691 6.39226 19.5714 7.07611C19.4859 7.74774 19.3943 8.38884 19.2967 8.99941C19.199 9.59777 19.1013 10.129 19.0036 10.593C18.8448 11.3501 18.6311 11.9973 18.3625 12.5346C18.106 13.0719 17.7458 13.481 17.2818 13.7619C16.8299 14.0427 16.2377 14.1832 15.505 14.1832C15.0287 14.1832 14.5891 14.116 14.1862 13.9817V11.7104C14.3449 11.7714 14.4975 11.8203 14.6441 11.8569C14.8028 11.8813 14.9738 11.8935 15.157 11.8935C15.5111 11.8935 15.7798 11.7104 15.9629 11.344C16.1583 10.9655 16.3537 10.2633 16.5491 9.23753C16.6223 8.84677 16.7261 8.23619 16.8605 7.40581C16.9948 6.57544 17.1413 5.60462 17.3001 4.49338C17.471 3.36993 17.6298 2.17931 17.7763 0.921532H26.0374V14ZM38.7883 14H31.2599V0.921532H38.7883V3.19286H34.0258V6.06866H38.4586V8.33999H34.0258V11.7104H38.7883V14ZM54.0936 14H50.943L46.1989 7.36918V14H43.433V0.921532H46.1989V7.25928L50.8881 0.921532H53.8371L49.0747 7.20433L54.0936 14ZM62.7004 14H59.9345V3.2295H56.3809V0.921532H66.2539V3.2295H62.7004V14ZM74.3703 0.921532C76.0554 0.921532 77.2827 1.28788 78.052 2.02056C78.8335 2.74104 79.2243 3.73627 79.2243 5.00626C79.2243 5.77559 79.0656 6.48996 78.7481 7.14937C78.4306 7.80879 77.8994 8.33999 77.1545 8.74297C76.4218 9.14595 75.4204 9.34744 74.1505 9.34744H72.9598V14H70.1939V0.921532H74.3703ZM74.2237 3.19286H72.9598V7.07611H73.8757C74.6572 7.07611 75.2739 6.92346 75.7257 6.61818C76.1898 6.30068 76.4218 5.7939 76.4218 5.09785C76.4218 3.82786 75.6891 3.19286 74.2237 3.19286ZM95.4887 7.44245C95.4887 8.79792 95.2628 9.98243 94.8109 10.996C94.3713 11.9973 93.6875 12.7789 92.7594 13.3406C91.8436 13.9023 90.6774 14.1832 89.2608 14.1832C87.8443 14.1832 86.672 13.9023 85.7439 13.3406C84.8281 12.7789 84.1442 11.9912 83.6924 10.9777C83.2528 9.96411 83.033 8.7796 83.033 7.42413C83.033 6.06866 83.2528 4.89025 83.6924 3.88892C84.1442 2.88758 84.8281 2.11215 85.7439 1.56263C86.672 1.00091 87.8504 0.720044 89.2792 0.720044C90.6957 0.720044 91.8619 1.00091 92.7777 1.56263C93.6936 2.11215 94.3713 2.89368 94.8109 3.90723C95.2628 4.90857 95.4887 6.08698 95.4887 7.44245ZM85.9454 7.44245C85.9454 8.81013 86.208 9.89085 86.7331 10.6846C87.2582 11.4661 88.1008 11.8569 89.2608 11.8569C90.4454 11.8569 91.294 11.4661 91.8069 10.6846C92.3198 9.89085 92.5763 8.81013 92.5763 7.44245C92.5763 6.07477 92.3198 5.00016 91.8069 4.21862C91.294 3.42488 90.4515 3.02801 89.2792 3.02801C88.1069 3.02801 87.2582 3.42488 86.7331 4.21862C86.208 5.00016 85.9454 6.07477 85.9454 7.44245ZM105.671 3.04633C104.609 3.04633 103.797 3.4432 103.235 4.23694C102.673 5.03069 102.392 6.11751 102.392 7.4974C102.392 8.88951 102.649 9.97022 103.162 10.7395C103.687 11.4967 104.523 11.8752 105.671 11.8752C106.196 11.8752 106.727 11.8141 107.265 11.692C107.802 11.5699 108.382 11.399 109.005 11.1792V13.5054C108.431 13.7375 107.863 13.9084 107.301 14.0183C106.74 14.1282 106.111 14.1832 105.415 14.1832C104.059 14.1832 102.948 13.9084 102.081 13.3589C101.214 12.7972 100.573 12.0156 100.158 11.0143C99.7425 10.0007 99.5349 8.82234 99.5349 7.47908C99.5349 6.16025 99.773 4.99405 100.249 3.9805C100.726 2.96695 101.415 2.17321 102.319 1.59927C103.235 1.02533 104.352 0.738361 105.671 0.738361C106.318 0.738361 106.966 0.823841 107.613 0.994801C108.272 1.15355 108.901 1.37336 109.499 1.65422L108.602 3.90723C108.113 3.67522 107.619 3.47373 107.118 3.30277C106.63 3.13181 106.147 3.04633 105.671 3.04633ZM113.707 0.921532H116.198V7.24096C116.198 7.54625 116.192 7.88817 116.18 8.26672C116.168 8.64528 116.156 9.01773 116.143 9.38407C116.131 9.7382 116.119 10.0496 116.107 10.3182C116.095 10.5747 116.082 10.7518 116.07 10.8494H116.125L122.17 0.921532H125.485V14H123.012V7.71721C123.012 7.3875 123.018 7.02726 123.031 6.63649C123.043 6.23351 123.055 5.84885 123.067 5.48251C123.092 5.11617 123.11 4.79867 123.122 4.53002C123.147 4.24915 123.165 4.06598 123.177 3.9805H123.104L117.041 14H113.707V0.921532ZM135.747 14H132.981V3.2295H129.428V0.921532H139.301V3.2295H135.747V14ZM143.241 0.921532H145.732V7.24096C145.732 7.54625 145.726 7.88817 145.714 8.26672C145.701 8.64528 145.689 9.01773 145.677 9.38407C145.665 9.7382 145.653 10.0496 145.64 10.3182C145.628 10.5747 145.616 10.7518 145.604 10.8494H145.659L151.703 0.921532H155.019V14H152.546V7.71721C152.546 7.3875 152.552 7.02726 152.564 6.63649C152.577 6.23351 152.589 5.84885 152.601 5.48251C152.625 5.11617 152.644 4.79867 152.656 4.53002C152.68 4.24915 152.699 4.06598 152.711 3.9805H152.638L146.575 14H143.241V0.921532Z" fill="#E11C4B"/>
</svg>
