<svg width="186" height="17" viewBox="0 0 186 17" fill="none" xmlns="http://www.w3.org/2000/svg">
<path d="M6.05113 2.844C5.34713 2.844 4.65046 2.94667 3.96113 3.152C3.2718 3.34267 2.59713 3.57733 1.93713 3.856L0.88113 1.172C1.65846 0.834666 2.4798 0.570666 3.34513 0.379999C4.21046 0.174666 5.13446 0.0719992 6.11713 0.0719992C8.4198 0.0719992 10.2091 0.783333 11.4851 2.206C12.7758 3.614 13.4211 5.60133 13.4211 8.168C13.4211 9.78133 13.1498 11.1967 12.6071 12.414C12.0645 13.6167 11.2285 14.5553 10.0991 15.23C8.98446 15.89 7.55446 16.22 5.80913 16.22C4.91446 16.22 4.10046 16.154 3.36713 16.022C2.64846 15.89 1.91513 15.6847 1.16713 15.406V12.612C2.00313 12.876 2.77313 13.0813 3.47713 13.228C4.1958 13.3747 4.90713 13.448 5.61113 13.448C6.96046 13.448 8.0018 13.118 8.73513 12.458C9.46846 11.7833 9.86446 10.7787 9.92313 9.444H3.10313V6.716H9.90113C9.85713 5.49867 9.49046 4.55267 8.80113 3.878C8.1118 3.18867 7.19513 2.844 6.05113 2.844ZM30.9893 16H27.6673V3.064H23.8173C23.7293 3.73867 23.634 4.472 23.5313 5.264C23.4433 6.056 23.3407 6.86267 23.2233 7.684C23.1207 8.49067 23.0107 9.26067 22.8933 9.994C22.776 10.7127 22.6587 11.3507 22.5413 11.908C22.3507 12.8173 22.094 13.5947 21.7713 14.24C21.4633 14.8853 21.0307 15.3767 20.4733 15.714C19.9307 16.0513 19.2193 16.22 18.3393 16.22C17.7673 16.22 17.2393 16.1393 16.7553 15.978V13.25C16.946 13.3233 17.1293 13.382 17.3053 13.426C17.496 13.4553 17.7013 13.47 17.9213 13.47C18.3467 13.47 18.6693 13.25 18.8893 12.81C19.124 12.3553 19.3587 11.512 19.5933 10.28C19.6813 9.81067 19.806 9.07733 19.9673 8.08C20.1287 7.08267 20.3047 5.91667 20.4953 4.582C20.7007 3.23267 20.8913 1.80267 21.0673 0.291999H30.9893V16ZM46.3039 16H37.2619V0.291999H46.3039V3.02H40.5839V6.474H45.9079V9.202H40.5839V13.25H46.3039V16ZM64.6865 16H60.9025L55.2045 8.036V16H51.8825V0.291999H55.2045V7.904L60.8365 0.291999H64.3785L58.6585 7.838L64.6865 16ZM75.0237 16H71.7017V3.064H67.4337V0.291999H79.2917V3.064H75.0237V16ZM89.0399 0.291999C91.0639 0.291999 92.5379 0.731999 93.4619 1.612C94.4006 2.47733 94.8699 3.67267 94.8699 5.198C94.8699 6.122 94.6793 6.98 94.2979 7.772C93.9166 8.564 93.2786 9.202 92.3839 9.686C91.5039 10.17 90.3013 10.412 88.7759 10.412H87.3459V16H84.0239V0.291999H89.0399ZM88.8639 3.02H87.3459V7.684H88.4459C89.3846 7.684 90.1253 7.50067 90.6679 7.134C91.2253 6.75267 91.5039 6.144 91.5039 5.308C91.5039 3.78267 90.6239 3.02 88.8639 3.02ZM114.404 8.124C114.404 9.752 114.133 11.1747 113.59 12.392C113.062 13.5947 112.241 14.5333 111.126 15.208C110.026 15.8827 108.626 16.22 106.924 16.22C105.223 16.22 103.815 15.8827 102.7 15.208C101.6 14.5333 100.779 13.5873 100.236 12.37C99.7084 11.1527 99.4444 9.73 99.4444 8.102C99.4444 6.474 99.7084 5.05867 100.236 3.856C100.779 2.65333 101.6 1.722 102.7 1.062C103.815 0.387333 105.23 0.0499995 106.946 0.0499995C108.648 0.0499995 110.048 0.387333 111.148 1.062C112.248 1.722 113.062 2.66067 113.59 3.878C114.133 5.08067 114.404 6.496 114.404 8.124ZM102.942 8.124C102.942 9.76667 103.258 11.0647 103.888 12.018C104.519 12.9567 105.531 13.426 106.924 13.426C108.347 13.426 109.366 12.9567 109.982 12.018C110.598 11.0647 110.906 9.76667 110.906 8.124C110.906 6.48133 110.598 5.19067 109.982 4.252C109.366 3.29867 108.354 2.822 106.946 2.822C105.538 2.822 104.519 3.29867 103.888 4.252C103.258 5.19067 102.942 6.48133 102.942 8.124ZM126.634 2.844C125.358 2.844 124.383 3.32067 123.708 4.274C123.033 5.22733 122.696 6.53267 122.696 8.19C122.696 9.862 123.004 11.16 123.62 12.084C124.251 12.9933 125.255 13.448 126.634 13.448C127.265 13.448 127.903 13.3747 128.548 13.228C129.193 13.0813 129.89 12.876 130.638 12.612V15.406C129.949 15.6847 129.267 15.89 128.592 16.022C127.917 16.154 127.162 16.22 126.326 16.22C124.698 16.22 123.363 15.89 122.322 15.23C121.281 14.5553 120.511 13.6167 120.012 12.414C119.513 11.1967 119.264 9.78133 119.264 8.168C119.264 6.584 119.55 5.18333 120.122 3.966C120.694 2.74867 121.523 1.79533 122.608 1.106C123.708 0.416666 125.05 0.0719992 126.634 0.0719992C127.411 0.0719992 128.189 0.174666 128.966 0.379999C129.758 0.570666 130.513 0.834666 131.232 1.172L130.154 3.878C129.567 3.59933 128.973 3.35733 128.372 3.152C127.785 2.94667 127.206 2.844 126.634 2.844ZM136.286 0.291999H139.278V7.882C139.278 8.24867 139.271 8.65933 139.256 9.114C139.241 9.56867 139.227 10.016 139.212 10.456C139.197 10.8813 139.183 11.2553 139.168 11.578C139.153 11.886 139.139 12.0987 139.124 12.216H139.19L146.45 0.291999H150.432V16H147.462V8.454C147.462 8.058 147.469 7.62533 147.484 7.156C147.499 6.672 147.513 6.21 147.528 5.77C147.557 5.33 147.579 4.94867 147.594 4.626C147.623 4.28867 147.645 4.06867 147.66 3.966H147.572L140.29 16H136.286V0.291999ZM162.757 16H159.435V3.064H155.167V0.291999H167.025V3.064H162.757V16ZM171.758 0.291999H174.75V7.882C174.75 8.24867 174.742 8.65933 174.728 9.114C174.713 9.56867 174.698 10.016 174.684 10.456C174.669 10.8813 174.654 11.2553 174.64 11.578C174.625 11.886 174.61 12.0987 174.596 12.216H174.662L181.922 0.291999H185.904V16H182.934V8.454C182.934 8.058 182.941 7.62533 182.956 7.156C182.97 6.672 182.985 6.21 183 5.77C183.029 5.33 183.051 4.94867 183.066 4.626C183.095 4.28867 183.117 4.06867 183.132 3.966H183.044L175.762 16H171.758V0.291999Z" fill="#E11C4B"/>
</svg>
