<svg width="22" height="24" viewBox="0 0 22 24" fill="none" xmlns="http://www.w3.org/2000/svg">
<path d="M4.33337 5.99994V3.59993C4.33339 2.90498 4.5569 2.22489 4.97693 1.64176C5.39695 1.05862 5.99553 0.597355 6.70042 0.313651C7.40531 0.029947 8.18637 -0.0640731 8.94932 0.04294C9.71228 0.149953 10.4245 0.453425 11 0.916724C11.5756 0.453425 12.2878 0.149953 13.0508 0.04294C13.8137 -0.0640731 14.5948 0.029947 15.2997 0.313651C16.0045 0.597355 16.6031 1.05862 17.0232 1.64176C17.4432 2.22489 17.6667 2.90498 17.6667 3.59993V5.99994H19.6667C20.1971 5.99994 20.7058 6.18958 21.0809 6.52715C21.456 6.86472 21.6667 7.32256 21.6667 7.79995V19.806C21.6667 20.9183 21.1757 21.9851 20.3018 22.7716C19.4279 23.5581 18.2426 24 17.0067 24H5.66671C4.25222 24 2.89566 23.4943 1.89547 22.5941C0.895277 21.6939 0.333374 20.473 0.333374 19.2V7.79995C0.333374 7.32256 0.544087 6.86472 0.91916 6.52715C1.29423 6.18958 1.80294 5.99994 2.33337 5.99994H4.33337ZM13.18 22.2C12.6361 21.4978 12.3452 20.662 12.3467 19.806V7.79995H2.33337V19.2C2.33337 19.594 2.41959 19.9841 2.58711 20.348C2.75462 20.712 3.00016 21.0427 3.30968 21.3213C3.61921 21.5999 3.98668 21.8209 4.3911 21.9716C4.79552 22.1224 5.22897 22.2 5.66671 22.2H13.18ZM10.3334 5.99994V3.59993C10.3334 3.12254 10.1227 2.6647 9.74759 2.32714C9.37252 1.98957 8.86381 1.79993 8.33337 1.79993C7.80294 1.79993 7.29423 1.98957 6.91916 2.32714C6.54409 2.6647 6.33337 3.12254 6.33337 3.59993V5.99994H10.3334ZM12.3334 5.99994H15.6667V3.59993C15.6667 3.22941 15.5397 2.86791 15.303 2.56477C15.0663 2.26162 14.7314 2.03161 14.344 1.90613C13.9567 1.78064 13.5357 1.7658 13.1387 1.86363C12.7416 1.96145 12.3877 2.16718 12.1254 2.45273C12.26 2.81273 12.3334 3.19913 12.3334 3.59993V5.99994ZM14.3467 19.806C14.3467 20.4409 14.627 21.0498 15.1258 21.4988C15.6247 21.9478 16.3012 22.2 17.0067 22.2C17.7122 22.2 18.3888 21.9478 18.8876 21.4988C19.3865 21.0498 19.6667 20.4409 19.6667 19.806V7.79995H14.3467V19.806Z" fill="#8D8D8D"/>
</svg>
